<svg width="16" height="16" viewBox="0 0 16 16" fill="none" xmlns="http://www.w3.org/2000/svg">
<path d="M13 1.75H11.75V1.5C11.75 1.30109 11.671 1.11032 11.5303 0.96967C11.3897 0.829018 11.1989 0.75 11 0.75C10.8011 0.75 10.6103 0.829018 10.4697 0.96967C10.329 1.11032 10.25 1.30109 10.25 1.5V1.75H5.75V1.5C5.75 1.30109 5.67098 1.11032 5.53033 0.96967C5.38968 0.829018 5.19891 0.75 5 0.75C4.80109 0.75 4.61032 0.829018 4.46967 0.96967C4.32902 1.11032 4.25 1.30109 4.25 1.5V1.75H3C2.66848 1.75 2.35054 1.8817 2.11612 2.11612C1.8817 2.35054 1.75 2.66848 1.75 3V13C1.75 13.3315 1.8817 13.6495 2.11612 13.8839C2.35054 14.1183 2.66848 14.25 3 14.25H13C13.3315 14.25 13.6495 14.1183 13.8839 13.8839C14.1183 13.6495 14.25 13.3315 14.25 13V3C14.25 2.66848 14.1183 2.35054 13.8839 2.11612C13.6495 1.8817 13.3315 1.75 13 1.75ZM4.25 3.25C4.25 3.44891 4.32902 3.63968 4.46967 3.78033C4.61032 3.92098 4.80109 4 5 4C5.19891 4 5.38968 3.92098 5.53033 3.78033C5.67098 3.63968 5.75 3.44891 5.75 3.25H10.25C10.25 3.44891 10.329 3.63968 10.4697 3.78033C10.6103 3.92098 10.8011 4 11 4C11.1989 4 11.3897 3.92098 11.5303 3.78033C11.671 3.63968 11.75 3.44891 11.75 3.25H12.75V4.75H3.25V3.25H4.25ZM3.25 12.75V6.25H12.75V12.75H3.25ZM7 7.75V11.25C7 11.4489 6.92098 11.6397 6.78033 11.7803C6.63968 11.921 6.44891 12 6.25 12C6.05109 12 5.86032 11.921 5.71967 11.7803C5.57902 11.6397 5.5 11.4489 5.5 11.25V8.9575C5.32154 9.01607 5.12761 9.00554 4.95653 8.92801C4.78546 8.85048 4.64971 8.71158 4.57611 8.53878C4.50251 8.36598 4.49643 8.17185 4.55906 7.99478C4.6217 7.81771 4.74849 7.67059 4.91437 7.5825L5.91437 7.0825C6.02848 7.0254 6.15526 6.99836 6.28273 7.00392C6.4102 7.00949 6.53414 7.04749 6.64283 7.11431C6.75152 7.18114 6.84137 7.2746 6.90387 7.38583C6.96637 7.49707 6.99945 7.62241 7 7.75ZM10.8431 9.8675L10.2437 10.5H10.5C10.6989 10.5 10.8897 10.579 11.0303 10.7197C11.171 10.8603 11.25 11.0511 11.25 11.25C11.25 11.4489 11.171 11.6397 11.0303 11.7803C10.8897 11.921 10.6989 12 10.5 12H8.5C8.35343 11.9999 8.21009 11.957 8.0877 11.8763C7.9653 11.7957 7.8692 11.681 7.81129 11.5463C7.75338 11.4117 7.73619 11.263 7.76184 11.1187C7.78749 10.9744 7.85486 10.8408 7.95563 10.7344L9.71562 8.875C9.73788 8.83708 9.74973 8.79396 9.75 8.75C9.75014 8.69485 9.73204 8.6412 9.69852 8.5974C9.665 8.55361 9.61793 8.52213 9.56466 8.50786C9.51138 8.4936 9.45489 8.49735 9.40396 8.51854C9.35304 8.53973 9.31056 8.57716 9.28312 8.625C9.18175 8.79338 9.01833 8.91524 8.82802 8.96436C8.63771 9.01347 8.43573 8.98593 8.26553 8.88764C8.09533 8.78935 7.97051 8.62818 7.91793 8.4388C7.86535 8.24942 7.88921 8.04697 7.98438 7.875C8.17697 7.54134 8.4743 7.28055 8.83022 7.1331C9.18615 6.98565 9.58079 6.95978 9.95292 7.05949C10.3251 7.1592 10.6539 7.37892 10.8884 7.68458C11.1229 7.99024 11.25 8.36474 11.25 8.75C11.2511 9.13039 11.1273 9.50062 10.8975 9.80375C10.8807 9.82612 10.8626 9.84742 10.8431 9.8675Z" fill="#595A5B"/>
</svg>
