<svg width="16" height="16" viewBox="0 0 16 16" fill="none" xmlns="http://www.w3.org/2000/svg">
<path d="M8 1.25C6.66498 1.25 5.35994 1.64588 4.2499 2.38758C3.13987 3.12928 2.27471 4.18349 1.76382 5.41689C1.25292 6.65029 1.11925 8.00749 1.3797 9.31686C1.64015 10.6262 2.28303 11.829 3.22703 12.773C4.17104 13.717 5.37377 14.3599 6.68314 14.6203C7.99251 14.8808 9.34971 14.7471 10.5831 14.2362C11.8165 13.7253 12.8707 12.8601 13.6124 11.7501C14.3541 10.6401 14.75 9.33502 14.75 8C14.748 6.2104 14.0362 4.49466 12.7708 3.22922C11.5053 1.96378 9.7896 1.25199 8 1.25ZM10.7656 9.705C11.0823 9.19267 11.25 8.60228 11.25 8C11.25 7.39772 11.0823 6.80733 10.7656 6.295L12.2031 4.8575C12.8827 5.76425 13.25 6.86686 13.25 8C13.25 9.13314 12.8827 10.2357 12.2031 11.1425L10.7656 9.705ZM6.25 8C6.25 7.65388 6.35264 7.31554 6.54493 7.02775C6.73722 6.73997 7.01054 6.51566 7.33031 6.38321C7.65008 6.25076 8.00194 6.2161 8.34141 6.28363C8.68088 6.35115 8.9927 6.51782 9.23744 6.76256C9.48218 7.00731 9.64885 7.31912 9.71638 7.65859C9.7839 7.99806 9.74925 8.34993 9.61679 8.6697C9.48434 8.98947 9.26004 9.26278 8.97225 9.45507C8.68446 9.64736 8.34612 9.75 8 9.75C7.53587 9.75 7.09075 9.56563 6.76257 9.23744C6.43438 8.90925 6.25 8.46413 6.25 8ZM11.1425 3.79688L9.705 5.23438C9.19267 4.91774 8.60229 4.75002 8 4.75002C7.39772 4.75002 6.80734 4.91774 6.295 5.23438L4.8575 3.79688C5.76426 3.11732 6.86686 2.75 8 2.75C9.13314 2.75 10.2357 3.11732 11.1425 3.79688ZM3.79688 4.85938L5.23438 6.29688C4.91774 6.80921 4.75003 7.39959 4.75003 8.00187C4.75003 8.60416 4.91774 9.19454 5.23438 9.70687L3.79688 11.1444C3.11732 10.2376 2.75 9.13501 2.75 8.00187C2.75 6.86874 3.11732 5.76613 3.79688 4.85938ZM4.85938 12.205L6.29688 10.7675C6.80921 11.0841 7.3996 11.2519 8.00188 11.2519C8.60416 11.2519 9.19454 11.0841 9.70688 10.7675L11.1444 12.205C10.2376 12.8846 9.13502 13.2519 8.00188 13.2519C6.86874 13.2519 5.76613 12.8846 4.85938 12.205Z" fill="#595A5B"/>
</svg>
