<svg width="16" height="16" viewBox="0 0 16 16" fill="none" xmlns="http://www.w3.org/2000/svg">
<path d="M15.1875 6.00003C15.11 5.76085 14.9632 5.55004 14.7659 5.39428C14.5685 5.23852 14.3294 5.14482 14.0787 5.12503L10.5418 4.83941L9.17684 1.53878C9.08091 1.3055 8.91782 1.106 8.70827 0.965602C8.49873 0.825203 8.25219 0.750244 7.99996 0.750244C7.74773 0.750244 7.50119 0.825203 7.29165 0.965602C7.08211 1.106 6.91902 1.3055 6.82309 1.53878L5.45934 4.84003L1.92246 5.12503C1.67135 5.14574 1.43196 5.24021 1.23438 5.39656C1.0368 5.55292 0.889837 5.76418 0.811964 6.00381C0.734092 6.24344 0.728783 6.50074 0.796705 6.74337C0.864626 6.98601 1.00275 7.20316 1.19371 7.36753L3.89246 9.69503L3.06746 13.1763C3.00729 13.4217 3.02153 13.6795 3.10835 13.9168C3.19518 14.1542 3.35068 14.3603 3.55504 14.509C3.7594 14.6576 4.00337 14.7421 4.2559 14.7516C4.50844 14.7612 4.75809 14.6953 4.97309 14.5625L7.99996 12.6994L11.0268 14.5625C11.2418 14.6945 11.491 14.7596 11.743 14.7498C11.995 14.74 12.2385 14.6557 12.4425 14.5075C12.6465 14.3592 12.802 14.1538 12.8892 13.9172C12.9764 13.6805 12.9915 13.4233 12.9325 13.1782L12.1075 9.6969L14.8062 7.3694C14.9983 7.20463 15.1371 6.98649 15.205 6.74267C15.2729 6.49886 15.2668 6.24037 15.1875 6.00003ZM10.7831 8.85628C10.679 8.946 10.6016 9.06258 10.5593 9.19329C10.517 9.32401 10.5114 9.46384 10.5431 9.59753L11.3487 13L8.39309 11.1825C8.27487 11.1098 8.13878 11.0712 7.99996 11.0712C7.86115 11.0712 7.72506 11.1098 7.60684 11.1825L4.65121 13L5.45684 9.60003C5.48857 9.46635 5.48297 9.32651 5.44064 9.19579C5.39832 9.06508 5.3209 8.9485 5.21684 8.85878L2.57496 6.57753L6.03746 6.29815C6.17525 6.28708 6.3073 6.23815 6.41903 6.15675C6.53075 6.07536 6.61781 5.96467 6.67059 5.8369L7.99996 2.61815L9.32934 5.8369C9.38211 5.96467 9.46917 6.07536 9.5809 6.15675C9.69262 6.23815 9.82467 6.28708 9.96246 6.29815L13.425 6.57753L10.7831 8.85628Z" fill="#595A5B"/>
</svg>
