<svg width="16" height="16" viewBox="0 0 16 16" fill="none" xmlns="http://www.w3.org/2000/svg">
<path d="M14.75 8.56242C14.6397 9.84496 14.1654 11.0693 13.3828 12.0914C12.6003 13.1135 11.5421 13.8909 10.3328 14.3321C9.12349 14.7732 7.81332 14.8598 6.55646 14.5816C5.2996 14.3035 4.14832 13.6721 3.23808 12.7619C2.32784 11.8516 1.69649 10.7004 1.41833 9.44351C1.14017 8.18664 1.22676 6.87648 1.66791 5.66715C2.10906 4.45783 2.88643 3.39965 3.90854 2.61712C4.93066 1.83459 6.15501 1.36025 7.43755 1.24992C7.63646 1.23334 7.83381 1.29646 7.98618 1.42539C8.13856 1.55432 8.23347 1.7385 8.25005 1.93742C8.26662 2.13633 8.2035 2.33368 8.07457 2.48605C7.94564 2.63843 7.76146 2.73334 7.56255 2.74992C6.56465 2.83549 5.61196 3.20433 4.81659 3.81302C4.02121 4.4217 3.41625 5.24491 3.07289 6.18578C2.72953 7.12664 2.66205 8.14601 2.87841 9.12392C3.09477 10.1018 3.58595 10.9976 4.29416 11.7058C5.00237 12.414 5.89814 12.9052 6.87605 13.1216C7.85396 13.3379 8.87332 13.2704 9.81419 12.9271C10.7551 12.5837 11.5783 11.9788 12.1869 11.1834C12.7956 10.388 13.1645 9.43531 13.25 8.43742C13.2583 8.33892 13.2858 8.24301 13.3311 8.15516C13.3763 8.06731 13.4385 7.98923 13.5139 7.92539C13.5894 7.86155 13.6766 7.8132 13.7708 7.78309C13.8649 7.75298 13.9641 7.74171 14.0625 7.74992C14.161 7.75812 14.257 7.78565 14.3448 7.83092C14.4327 7.8762 14.5107 7.93833 14.5746 8.01378C14.6384 8.08923 14.6868 8.17651 14.7169 8.27065C14.747 8.36478 14.7583 8.46392 14.75 8.56242ZM7.25005 4.74992V7.99992C7.25005 8.19883 7.32907 8.38959 7.46972 8.53025C7.61037 8.6709 7.80114 8.74992 8.00005 8.74992H11.25C11.449 8.74992 11.6397 8.6709 11.7804 8.53025C11.921 8.38959 12 8.19883 12 7.99992C12 7.801 11.921 7.61024 11.7804 7.46959C11.6397 7.32893 11.449 7.24992 11.25 7.24992H8.75005V4.74992C8.75005 4.551 8.67103 4.36024 8.53038 4.21959C8.38973 4.07893 8.19896 3.99992 8.00005 3.99992C7.80114 3.99992 7.61037 4.07893 7.46972 4.21959C7.32907 4.36024 7.25005 4.551 7.25005 4.74992ZM13 5.99992C13.1978 5.99992 13.3912 5.94127 13.5556 5.83139C13.7201 5.7215 13.8482 5.56533 13.9239 5.3826C13.9996 5.19987 14.0194 4.99881 13.9808 4.80483C13.9422 4.61084 13.847 4.43266 13.7072 4.29281C13.5673 4.15296 13.3891 4.05772 13.1951 4.01913C13.0012 3.98055 12.8001 4.00035 12.6174 4.07604C12.4346 4.15172 12.2785 4.2799 12.1686 4.44435C12.0587 4.6088 12 4.80213 12 4.99992C12 5.26513 12.1054 5.51949 12.2929 5.70702C12.4805 5.89456 12.7348 5.99992 13 5.99992ZM11 3.99992C11.1978 3.99992 11.3912 3.94127 11.5556 3.83139C11.7201 3.7215 11.8482 3.56533 11.9239 3.3826C11.9996 3.19987 12.0194 2.99881 11.9808 2.80483C11.9422 2.61084 11.847 2.43266 11.7072 2.29281C11.5673 2.15296 11.3891 2.05772 11.1951 2.01913C11.0012 1.98055 10.8001 2.00035 10.6174 2.07604C10.4346 2.15172 10.2785 2.2799 10.1686 2.44435C10.0587 2.60879 10 2.80213 10 2.99992C10 3.26513 10.1054 3.51949 10.2929 3.70702C10.4805 3.89456 10.7348 3.99992 11 3.99992Z" fill="#595A5B"/>
</svg>
