<svg width="12" height="12" viewBox="0 0 12 12" fill="none" xmlns="http://www.w3.org/2000/svg">
<path d="M10.1479 4.89793L6.39795 8.64793C6.34569 8.70037 6.28359 8.74198 6.21522 8.77037C6.14685 8.79876 6.07354 8.81337 5.99951 8.81337C5.92548 8.81337 5.85217 8.79876 5.7838 8.77037C5.71543 8.74198 5.65333 8.70037 5.60107 8.64793L1.85107 4.89793C1.7454 4.79226 1.68604 4.64893 1.68604 4.49949C1.68604 4.35005 1.7454 4.20673 1.85107 4.10105C1.95675 3.99538 2.10007 3.93602 2.24951 3.93602C2.39895 3.93602 2.54228 3.99538 2.64795 4.10105L5.99998 7.45308L9.35201 4.10059C9.45768 3.99491 9.601 3.93555 9.75045 3.93555C9.89989 3.93555 10.0432 3.99491 10.1489 4.10059C10.2546 4.20626 10.3139 4.34958 10.3139 4.49902C10.3139 4.64847 10.2546 4.79179 10.1489 4.89746L10.1479 4.89793Z" fill="#595A5B"/>
</svg>
