<svg width="16" height="16" viewBox="0 0 16 16" fill="none" xmlns="http://www.w3.org/2000/svg">
<path d="M14.5307 13.4693L11.5625 10.4999C12.4525 9.34021 12.868 7.88541 12.7247 6.43063C12.5815 4.97585 11.8902 3.63002 10.7912 2.66616C9.69215 1.7023 8.26764 1.19257 6.8066 1.24039C5.34557 1.2882 3.95742 1.88998 2.92376 2.92364C1.8901 3.9573 1.28833 5.34544 1.24051 6.80648C1.19269 8.26751 1.70242 9.69203 2.66628 10.7911C3.63014 11.8901 4.97597 12.5814 6.43075 12.7246C7.88553 12.8678 9.34033 12.4524 10.5 11.5624L13.4707 14.5337C13.5404 14.6034 13.6232 14.6588 13.7144 14.6965C13.8056 14.7343 13.9032 14.7537 14.0019 14.7537C14.1006 14.7537 14.1983 14.7343 14.2894 14.6965C14.3806 14.6588 14.4634 14.6034 14.5332 14.5337C14.6029 14.4639 14.6583 14.3811 14.696 14.2899C14.7338 14.1988 14.7532 14.1011 14.7532 14.0024C14.7532 13.9038 14.7338 13.8061 14.696 13.7149C14.6583 13.6238 14.6029 13.5409 14.5332 13.4712L14.5307 13.4693ZM2.75004 6.99991C2.75004 6.15934 2.99929 5.33765 3.46629 4.63874C3.93329 3.93983 4.59705 3.3951 5.37363 3.07343C6.15022 2.75175 7.00475 2.66759 7.82917 2.83158C8.65359 2.99556 9.41087 3.40034 10.0052 3.99471C10.5996 4.58908 11.0044 5.34636 11.1684 6.17078C11.3324 6.9952 11.2482 7.84973 10.9265 8.62632C10.6049 9.40291 10.0601 10.0667 9.36121 10.5337C8.6623 11.0007 7.84061 11.2499 7.00004 11.2499C5.87322 11.2488 4.79289 10.8006 3.99611 10.0038C3.19933 9.20706 2.75119 8.12673 2.75004 6.99991Z" fill="#595A5B"/>
</svg>
